<?xml version="1.0" standalone="no"?>
<!DOCTYPE svg PUBLIC "-//W3C//DTD SVG 20010904//EN"
 "http://www.w3.org/TR/2001/REC-SVG-20010904/DTD/svg10.dtd">
<svg version="1.0" xmlns="http://www.w3.org/2000/svg"
 width="500.000000pt" height="500.000000pt" viewBox="0 0 500.000000 500.000000"
 preserveAspectRatio="xMidYMid meet">
<metadata>
Created by potrace 1.14, written by Peter Selinger 2001-2017
</metadata>
<g transform="translate(0.000000,500.000000) scale(0.100000,-0.100000)"
fill="#000000" stroke="none">
<path d="M2215 4984 c-269 -34 -517 -103 -740 -205 -27 -13 -52 -23 -55 -24
-3 0 -9 -3 -15 -7 -5 -3 -41 -23 -80 -43 -38 -21 -86 -47 -105 -58 -50 -28
-234 -155 -269 -186 -17 -14 -45 -37 -63 -51 -64 -49 -276 -269 -348 -361 -63
-82 -181 -251 -191 -275 -2 -5 -25 -47 -51 -94 -76 -138 -187 -414 -213 -530
-2 -8 -13 -53 -24 -100 -11 -47 -23 -110 -27 -140 -3 -30 -8 -58 -10 -61 -24
-42 -24 -656 0 -698 2 -3 6 -29 10 -58 3 -28 8 -57 11 -65 2 -7 6 -24 9 -38
41 -235 177 -575 321 -805 97 -155 225 -315 361 -450 412 -413 937 -662 1524
-724 87 -9 457 -7 520 4 19 3 64 10 100 16 108 17 119 19 208 40 336 77 694
254 982 486 103 82 284 262 361 358 317 394 503 839 556 1330 12 110 9 449 -5
560 -59 463 -243 896 -538 1265 -87 108 -264 286 -374 373 -207 166 -487 325
-715 406 -117 42 -304 94 -375 105 -19 3 -66 11 -105 17 -38 6 -81 13 -95 15
-57 12 -469 10 -565 -2z m505 -284 c52 -6 107 -13 123 -15 15 -3 42 -7 60 -10
81 -14 301 -76 387 -110 301 -119 542 -277 771 -505 250 -250 417 -518 537
-865 44 -127 87 -324 98 -455 3 -30 7 -61 9 -67 3 -7 1 -14 -3 -14 -4 -1 -204
-2 -445 -3 l-439 -2 -24 23 -24 22 0 446 c0 482 1 476 -55 550 -15 19 -52 47
-82 61 -54 27 -56 27 -285 28 -285 1 -268 -10 -268 168 0 65 4 117 8 114 16
-10 84 18 118 49 49 45 64 98 64 229 0 124 -15 170 -66 217 -50 45 -81 51
-228 47 -149 -3 -160 -7 -220 -82 -31 -37 -31 -39 -34 -171 -3 -116 -1 -140
16 -179 21 -46 90 -106 123 -106 47 0 49 -5 49 -140 0 -142 9 -175 62 -235 64
-74 86 -79 333 -82 121 -1 228 -2 237 -3 10 0 26 -10 37 -21 19 -21 20 -38 23
-478 l3 -456 28 -47 c55 -95 110 -120 272 -124 66 -1 122 -3 125 -3 3 -1 4
-88 2 -195 l-3 -194 -37 -6 c-43 -6 -105 -54 -130 -99 -14 -26 -17 -59 -17
-172 0 -137 1 -141 28 -181 15 -22 46 -51 70 -64 38 -22 55 -25 167 -26 131
-1 153 4 209 44 56 41 71 88 71 231 0 104 -3 131 -20 166 -23 48 -67 83 -124
100 l-41 12 -1 184 c-1 101 2 189 6 194 5 6 101 10 252 10 l243 -1 -1 -84 c0
-84 -11 -217 -18 -229 -2 -3 -7 -28 -10 -56 -8 -59 -49 -225 -75 -304 -108
-326 -288 -616 -531 -861 -158 -159 -259 -240 -424 -339 -151 -92 -470 -233
-479 -213 -3 6 -2 67 2 100 0 6 11 12 24 12 37 0 100 43 131 89 27 41 29 49
31 159 2 133 -10 191 -51 233 -48 50 -88 62 -209 64 -130 2 -185 -11 -231 -56
-45 -44 -58 -86 -59 -204 -1 -120 8 -169 41 -212 27 -36 91 -73 124 -73 11 0
20 -3 21 -7 4 -33 3 -147 -1 -153 -15 -24 -289 -57 -475 -58 -318 -1 -551 43
-840 158 -560 223 -1029 700 -1240 1262 -34 92 -78 235 -89 288 -2 14 -10 50
-16 80 -6 30 -13 73 -16 95 -3 22 -8 51 -11 65 -9 42 -12 452 -3 500 4 25 11
65 14 90 11 82 29 165 37 174 6 7 650 13 736 7 9 -1 12 -67 12 -268 l1 -267
26 -54 c28 -57 80 -103 139 -122 19 -6 77 -12 130 -13 l97 -2 13 -39 c25 -73
74 -121 138 -136 20 -4 87 -7 149 -6 128 2 174 19 216 80 34 50 40 83 38 215
-2 116 -3 122 -32 163 -16 24 -49 53 -72 66 -37 21 -55 23 -166 24 -109 0
-131 -3 -171 -22 -53 -25 -93 -78 -101 -132 l-7 -38 -93 0 c-148 0 -134 -66
-134 636 0 568 1 593 19 615 18 23 27 24 144 27 l126 4 7 -39 c10 -56 57 -118
107 -142 60 -29 260 -30 323 -2 93 42 115 92 116 255 0 131 -8 165 -50 209
-53 56 -89 67 -222 67 -103 0 -127 -3 -166 -22 -48 -22 -104 -92 -104 -129 0
-10 -4 -20 -8 -23 -4 -2 -68 -5 -142 -7 -117 -2 -141 -5 -180 -24 -59 -30 -96
-68 -121 -124 -18 -41 -20 -69 -22 -310 l-2 -266 -347 0 c-192 0 -348 3 -348
7 0 4 5 20 11 35 6 15 15 37 19 48 161 434 473 822 871 1081 272 177 627 306
934 340 33 3 61 7 62 8 9 8 347 5 423 -4z m373 -274 c12 -29 6 -174 -6 -185
-8 -6 -51 -9 -103 -8 l-89 2 -3 89 c-2 49 -1 95 2 103 8 19 192 19 199 -1z
m-1157 -518 c9 -14 9 -172 0 -186 -5 -8 -37 -12 -101 -12 -81 0 -94 2 -98 18
-4 14 -3 160 2 185 2 10 191 6 197 -5z m-68 -1433 c13 -12 9 -177 -4 -189 -9
-9 -41 -13 -101 -12 l-88 1 -5 75 c-7 106 -3 128 23 132 34 5 169 0 175 -7z
m2341 -560 c7 -3 11 -45 11 -100 0 -81 -2 -94 -17 -98 -27 -7 -167 -3 -180 5
-16 11 -14 186 3 196 15 9 169 7 183 -3z m-1031 -1042 c9 -14 8 -175 0 -188
-8 -14 -189 -10 -197 4 -11 18 -5 182 7 190 18 11 183 6 190 -6z"/>
<path d="M2385 3440 c-68 -15 -128 -68 -145 -129 -15 -56 -13 -253 4 -293 26
-61 100 -118 153 -118 16 0 18 -12 18 -132 0 -75 5 -153 13 -182 36 -143 164
-256 311 -274 l56 -7 2 -145 c3 -172 -11 -216 -77 -250 -35 -18 -68 -19 -581
-22 l-544 -3 -60 -29 c-76 -38 -149 -111 -183 -184 -24 -53 -27 -69 -30 -222
l-4 -166 -30 -2 c-70 -6 -141 -59 -165 -124 -16 -44 -16 -259 -1 -295 23 -54
59 -91 106 -111 40 -17 65 -20 167 -18 142 3 188 20 232 88 26 38 28 50 31
162 2 72 -1 136 -8 159 -16 54 -74 115 -121 127 l-39 11 0 140 c0 150 8 184
53 232 58 64 71 66 418 67 l316 0 -1 -127 -1 -127 -33 -7 c-51 -10 -109 -57
-133 -106 -18 -38 -21 -61 -21 -167 0 -105 4 -130 21 -164 23 -44 69 -84 116
-99 49 -16 265 -10 300 9 91 49 114 103 111 263 -3 125 -12 163 -49 203 -27
29 -89 62 -116 62 -18 0 -20 8 -23 103 -2 56 -2 114 0 130 l3 27 123 0 c139 0
191 12 259 59 106 72 137 159 137 377 l0 153 148 -1 c81 -1 160 -5 176 -9 46
-13 93 -51 118 -94 22 -37 23 -52 26 -236 l2 -197 -45 -7 c-61 -9 -107 -37
-141 -87 -27 -39 -29 -48 -33 -165 -4 -146 9 -194 66 -243 52 -46 75 -52 208
-52 136 -1 171 9 223 62 43 45 52 83 52 221 0 102 -3 121 -23 160 -24 45 -88
98 -119 99 -17 0 -18 16 -18 195 0 107 -1 198 -1 203 -22 124 -103 231 -219
286 l-65 31 -293 2 c-266 3 -296 5 -330 22 -55 29 -93 74 -107 128 -9 38 -13
195 -6 259 0 6 18 14 39 18 54 8 107 52 132 110 20 44 22 63 18 175 -3 118 -5
129 -31 167 -15 22 -46 51 -70 64 -37 21 -56 24 -152 25 -60 1 -123 -1 -140
-5z m213 -174 c16 -10 16 -182 0 -192 -17 -11 -171 -11 -185 -1 -16 12 -18
178 -3 193 11 11 170 11 188 0z m998 -1690 c3 -12 4 -57 2 -101 l-3 -80 -100
0 -100 0 -3 88 c-2 49 2 94 7 101 6 8 43 12 101 12 83 0 91 -1 96 -20z m-1137
-292 c9 -9 9 -167 0 -184 -6 -13 -26 -16 -101 -15 l-93 0 -5 55 c-3 30 -3 76
-2 102 l4 47 46 3 c60 4 144 -1 151 -8z m-981 -178 c13 -8 17 -195 5 -197 -35
-6 -172 -4 -185 3 -15 7 -17 22 -15 100 2 87 3 92 25 98 33 7 156 5 170 -4z"/>
</g>
</svg>
